<?xml version="1.0" encoding="UTF-8"?>
<svg id="Capa_9" data-name="Capa 9" xmlns="http://www.w3.org/2000/svg" viewBox="0 0 198.55 71.23">
  <defs>
    <style>
      .cls-1 {
        fill: #d64045;
      }

      .cls-2 {
        fill: #192638;
      }
    </style>
  </defs>
  <g>
    <path class="cls-2" d="M27.95,10.4s.2-.14.21,1.99c0,0,.13-.09.17-.37.14-1.17.03-2.09-.21-2.17-.53-.16-2.42,1.77-3.16,3.01l1.85-.07s.41-2.01,1.14-2.39Z"/>
    <path class="cls-2" d="M43,37.31c.08-2.11-1.55-3.67-3.16-4.14-3.1-.89-6.48.5-8.2-.92l1.03.25c-.41-2.39-3.22-4.29-3.08-5.86.19-2.02,2.74-1.75,3.6-2.69,1.34-1.48,1.45-3.24,1.24-3.66-.36-.73-.91-.24-1.86-1.52-.38-.52-.2-1.3-.75-1.91-.24-.26-.36-.55-.72-.8-1.15-.78-4.35,1.27-4.35,1.27,3.89-3.25,4.92-1.16,4.92-1.16.31-.78-.33-1.58-.85-1.87s-.87-.85-.87-.85c-.67-1.4-2.96-.38-2.96-.38,0,0-1-.12-2.17.08-1.08.19-1.81.6-1.81.6-.27-.27-.86-.87-1.43-1.51s-1.12-1.34-1.49-1.38c-.44-.05-1.3,1.51-1.6,3.5-.25,1.69,0,3.76.28,4.58.04.11.02.09-.02.06-.33-.29-.48-1.29-.48-1.29,0,0-.46,1.59-.23,3.42,0,0,1.76-.79,3.81-3.69,0,0-1.4,2.88-3.75,4.25,0,0-.74.39-.55-.35.19-.74.13-3.2.31-3.45,0,0-.73.88-1.6,1.28-.88.4-1.04.92-.59,1.78.45.86,1.13.8,1.13.8,0,0,.48.04.89,1.43.41,1.39,2.05.39,2.05.39,0,0,1.94-1.07,2.79-2.18s2.49-2.69,2.49-2.69c0,0-2.67,4.62-5.81,5.68-.27.09.85,1.18,1.47,1.72.83.73.68,2.04-.1,4.34-.53,1.57,0,4.06-.77,5.24-2.97,4.57-6.11,4.1-7.44,11.2,0,0-.83,1.67-2.03.2-1.87-2.28.87-7.25,2.14-8.69,7.27-8.28,2.87-12.21,1.43-13.48s-.13-3.6-.13-3.6c-3.07,2.77-1.27,5.17-.17,7.71,1.1,2.54-1.1,5.54-1.1,5.54,1.1-3.17-1.94-7.97-1.94-7.97,0,0-2.6-4.67,1.67-8.34,4.27-3.67,1.97-9.14-1.03-10.34-3-1.2-2.17-3.64-2.17-3.64-.67.43-1.8,3-.3,4.1s2,2.34,2,2.34c-1.33-.2-1.7-1.17-1.7-1.17.23,1.87.43.63,1.94,3.14,1.5,2.5-2.14,5.14-2.14,5.14,2.2-3.7-1.1-5.17-1.1-5.17,0,0,1.8,1.9-.23,3.47s-3.92,6.04,1,13.15c5.15,7.43-3.06,12.43-1.43,18.06,1.45,5.01,5.52,3.76,5.52,3.76,0,0,.63,1.69.84,2.25.44,1.15,1.94,2.95.17,4.94-.4.45-.6,1,.07,2.14.67,1.13,1.87,3.29,2.6,5.17.42,1.07,2.45,1.99,2.99.75,0,0,.32-.63-.47-1.12,0,0,1.12.21.65,1.56,0,0,2.28.31.68-1.98,0,0,.79.15.93,1.21,0,0,1.4-2.07-2.04-2.2,0,0-1.82-2.05-.89-4.03.87-1.85,4.23-2.41,3.92-6.64-.27-3.69,1.38-4.75,1.38-4.75-1.25,2.17-.8,4.45-.8,4.45,5.49-3.68,9.28-8.64,9.9-13.97,0,0-2.05,1.12-3.04-.26-.71-.99-1.49-1.65-2.11-1.92,1.52-.07,2.07,2.01,3.42,2.01,2.83,0,5.77-2.71,7.74-2.29,1.25.27,1.11,1.6,2,1.76,1.41.25.87-1.47.87-1.47.73.91,0,1.65,0,1.65,2,.27,1.02-1.98,1.02-1.98.4.34.6.93.6.93ZM22.39,15.17c-1.25.82-.76.22-1.16,1.2s-.89.44-1.05.22c-.99-1.32-.63-6.48.61-4.58,1.04,1.58,2.84,2.34,1.59,3.16Z"/>
    <path class="cls-2" d="M42.65,26.92c-2.54-1.94-3.8-2.34-7.51,0-3.7,2.34-4.9.43-4.9.43,0,0,.59,1.51,1.65,2.46s1.31,2.66,1.31,2.66h1.49c.41-.1,2.14-1.66,2.52-2.49s2.25-2.29,2.85-1.45,1.13.82,1.13.82c1.94.26,1.26-1.46,1.26-1.46,1.03,1.5-.57,1.74-.57,1.74,0,0,1,.47,1.7-.47.7-.93-.93-2.24-.93-2.24Z"/>
    <path class="cls-2" d="M28,61.61c-1.52.26-3.83-3.06-1.96-5.01,1.87-1.95.41-6.23.41-6.23-.93,1.49-3.87,3.25-3.87,3.25.26,1.82-1.43,3.66-1.43,3.66,0,0,.07.82-.2,1.13-.27.31.08,1.25.6,1.47.52.22,3.46,3.38,3.46,3.38,0,0,.83,1.13,2.2,1.08s1.78-.28,1.78-.28c.79-1-.61-1.67-.61-1.67,1.3.08,1.25,1.3,1.25,1.3.7-1.3-.1-2.35-1.62-2.09Z"/>
  </g>
  <g>
    <g>
      <path class="cls-2" d="M57.86,53.57c.5.59.75,1.29.75,2.09,0,.66-.15,1.24-.46,1.75-.31.52-.77.92-1.38,1.22-.61.3-1.36.45-2.23.45h-4.05v-12.76h3.98c1.27,0,2.23.29,2.88.88s.97,1.35.97,2.28c0,.81-.22,1.47-.65,1.97-.44.5-.99.85-1.67,1.03.74.13,1.36.5,1.86,1.09ZM51.31,52.11h3.2c.96,0,1.69-.23,2.21-.68.52-.45.77-1.08.77-1.88s-.25-1.39-.76-1.84-1.28-.67-2.31-.67h-3.11v5.07ZM56.92,57.63c.59-.49.88-1.17.88-2.03s-.3-1.52-.9-2.03c-.6-.5-1.42-.75-2.46-.75h-3.13v5.54h3.18c1.03,0,1.84-.25,2.43-.74Z"/>
      <path class="cls-2" d="M61.12,51.46c.41-.76.97-1.35,1.69-1.76.72-.41,1.54-.62,2.46-.62,1.04,0,1.93.25,2.65.76.73.51,1.24,1.16,1.53,1.95v-2.58h.82v9.87h-.82v-2.6c-.29.8-.8,1.46-1.54,1.97-.73.52-1.62.77-2.65.77-.92,0-1.74-.21-2.46-.63s-1.28-1.01-1.69-1.78c-.41-.77-.61-1.66-.61-2.68s.2-1.91.61-2.67ZM68.92,51.85c-.36-.66-.85-1.17-1.46-1.53-.62-.36-1.31-.54-2.07-.54s-1.5.17-2.11.52-1.08.85-1.42,1.5c-.34.66-.51,1.43-.51,2.33s.17,1.67.51,2.33c.34.65.82,1.16,1.43,1.51.61.35,1.31.53,2.1.53s1.46-.18,2.08-.54,1.11-.87,1.46-1.53c.35-.66.53-1.43.53-2.3s-.18-1.62-.54-2.28Z"/>
      <path class="cls-2" d="M78.38,59.07l-4.31-4.53v4.53h-.82v-13.45h.82v8.05l4.24-4.47h1.15l-4.78,4.91,4.84,4.96h-1.13Z"/>
      <path class="cls-2" d="M90.05,54.46h-8.53c.02.89.22,1.63.58,2.24s.84,1.06,1.44,1.36c.59.3,1.24.46,1.94.46.97,0,1.78-.24,2.44-.72s1.07-1.13,1.24-1.95h.85c-.19,1.01-.69,1.82-1.49,2.45-.8.62-1.81.94-3.04.94-.92,0-1.74-.21-2.47-.62-.73-.41-1.3-1-1.71-1.77-.41-.77-.62-1.67-.62-2.7s.2-1.93.61-2.69c.41-.76.97-1.35,1.7-1.75s1.56-.61,2.49-.61,1.77.2,2.46.61c.7.41,1.23.95,1.59,1.62.36.67.55,1.4.55,2.17,0,.44-.01.76-.04.98ZM88.8,51.57c-.35-.61-.82-1.06-1.41-1.35-.59-.3-1.24-.45-1.93-.45s-1.33.15-1.92.45c-.59.3-1.07.75-1.44,1.35-.37.61-.57,1.35-.59,2.22h7.74c.04-.87-.12-1.61-.46-2.22Z"/>
      <path class="cls-2" d="M94.67,49.58c.62-.38,1.41-.57,2.36-.57v.86h-.27c-.97,0-1.78.28-2.42.83-.64.55-.96,1.45-.96,2.7v5.69h-.82v-9.87h.82v2.04c.24-.73.67-1.28,1.29-1.66Z"/>
      <path class="cls-2" d="M106.63,49.2l-5.74,14.51h-.84l1.84-4.64-4.14-9.87h.89l3.71,8.96,3.45-8.96h.84Z"/>
    </g>
    <g>
      <path class="cls-2" d="M62.33,27.13c1.36.59,2.45,1.42,3.24,2.49s1.2,2.26,1.2,3.58c0,1.69-.74,3.21-2.22,4.55-.75.68-1.66,1.19-2.73,1.54s-2.37.51-3.9.51h-8.92v-23.21h8.01c1.11,0,2.14.13,3.1.39.96.26,1.74.62,2.33,1.09.59.45,1.08,1.03,1.48,1.75.4.72.6,1.51.6,2.38,0,1.15-.21,2.13-.64,2.93-.42.8-.94,1.47-1.55,2.01ZM56.55,18.35h-3.56v8.22h3.53c1.1,0,1.95-.24,2.52-.72.58-.48.97-1.06,1.18-1.75s.32-1.32.32-1.91c0-.49-.11-1.04-.34-1.64-.22-.6-.62-1.12-1.18-1.55-.56-.43-1.39-.65-2.47-.65ZM57.82,38.03c1.06,0,1.92-.17,2.58-.51.66-.34,1.16-.77,1.52-1.29.35-.52.59-1.05.72-1.59.13-.54.19-1.02.19-1.45,0-.47-.06-.98-.19-1.53-.13-.55-.36-1.08-.71-1.59s-.85-.92-1.52-1.25c-.67-.33-1.54-.49-2.59-.49h-4.83v9.7h4.83Z"/>
      <path class="cls-2" d="M81.59,39.79l-2.72-6.21h-9.17l-2.82,6.21h-1.94l10.76-23.42,10.23,23.42h-4.34ZM78.1,31.82l-3.7-8.43-3.88,8.43h7.58Z"/>
      <path class="cls-2" d="M95.24,28.29l8.43,11.5h-4.94l-5.82-7.97-5.26,7.97h-1.76v-23.21h3.99v16.61l10.93-16.61h2.12l-7.69,11.71Z"/>
      <path class="cls-2" d="M103.85,16.58h14.67v1.76h-10.69v8.96h8.04v1.76h-8.04v8.96h10.69v1.76h-14.67v-23.21Z"/>
      <path class="cls-2" d="M137.5,16.58v23.21h-1.76l-14.6-17.07v17.07h-1.76v-23.21h1.76l14.64,17.11v-17.11h1.73Z"/>
      <path class="cls-2" d="M139.12,16.58h14.67v1.76h-10.69v8.96h8.04v1.76h-8.04v8.96h10.69v1.76h-14.67v-23.21Z"/>
      <path class="cls-2" d="M163.99,28.29l8.43,11.5h-4.94l-5.82-7.97-5.26,7.97h-1.76v-23.21h3.99v16.61l10.93-16.61h2.12l-7.69,11.71Z"/>
      <path class="cls-2" d="M181.45,16.37c1.62,0,3.15.31,4.57.93,1.42.62,2.67,1.48,3.74,2.56,1.07,1.08,1.91,2.33,2.52,3.76.61,1.42.92,2.95.92,4.57s-.31,3.15-.92,4.57c-.61,1.42-1.45,2.67-2.52,3.76-1.07,1.08-2.32,1.93-3.74,2.56-1.42.62-2.95.93-4.57.93s-3.15-.31-4.57-.92c-1.42-.61-2.67-1.46-3.74-2.54s-1.91-2.34-2.52-3.77c-.61-1.43-.92-2.96-.92-4.59s.31-3.15.92-4.59c.61-1.43,1.45-2.69,2.52-3.77s2.32-1.93,3.74-2.54c1.42-.61,2.95-.92,4.57-.92ZM189.03,28.19c0-3.13-.62-5.58-1.87-7.37-1.25-1.79-3.15-2.68-5.71-2.68s-4.53.9-5.77,2.72c-1.23,1.81-1.85,4.26-1.85,7.34s.64,5.53,1.91,7.34c1.27,1.81,3.17,2.72,5.71,2.72s4.47-.91,5.71-2.73c1.25-1.82,1.87-4.26,1.87-7.32Z"/>
    </g>
    <g>
      <path class="cls-2" d="M147.41,47c-.38,1.07-.88,2.14-1.48,3.21.99.34,1.05.6.19.77v9.06c-.56.51-.84.54-.84.06v-8.54c-.73,1.03-1.58,1.97-2.57,2.83-.26.17-.34.17-.26,0,2.1-2.61,3.49-5.42,4.18-8.41l1.28.58c.34.13.17.28-.51.45ZM150.69,53.55v4.95c0,.17.09.26.26.26h4.69c.39,0,.64-.23.77-.71l.64-2.38c.08-.08.15-.06.19.06l-.06,2.5c0,.13.06.24.19.32.26.17.26.38,0,.64-.21.21-.54.32-.96.32h-5.78c-.51,0-.77-.26-.77-.77v-12.65l1.16.19c.47.17.36.34-.32.51v6.3c2.91-1.97,4.67-3.49,5.27-4.56l1.22.9c.21.34,0,.45-.64.32-1.89,1.46-3.83,2.72-5.85,3.79Z"/>
      <path class="cls-2" d="M161.8,55.09c-.21.73-.32,1.39-.32,1.99,0,.13.04.39.13.77.08.47-.04.71-.39.71-.43,0-.77-.45-1.03-1.35-.17-.6-.24-1.52-.19-2.76.04-1.07.11-1.86.19-2.38.17-.99.32-1.73.45-2.25.08-.34.13-.75.13-1.22,0-.51-.13-.92-.39-1.22-.17-.26-.11-.32.19-.19.51.34.88.75,1.09,1.22.13.26.11.56-.06.9-.73,1.46-1.09,3.08-1.09,4.88,0,.81.06,1.39.19,1.73.09.26.19.21.32-.13.43-1.03.83-2.08,1.22-3.15.17-.17.26-.15.26.06-.21.73-.45,1.52-.71,2.38ZM172.53,49.76c.13.17.09.28-.13.32-.99.13-1.97.24-2.95.32v4.11c0,1.5-.45,2.72-1.35,3.66-.6.64-1.39,1.18-2.38,1.61-.34.13-.43.09-.26-.13.86-.56,1.58-1.22,2.18-1.99.68-.9,1.03-2.03,1.03-3.4v-3.79c-.64.13-1.43.19-2.38.19-.73,0-1.26-.06-1.61-.19-.43-.17-.84-.54-1.22-1.09.04-.13.11-.17.19-.13.3.34.6.58.9.71s.69.19,1.16.19c.64,0,1.16-.02,1.54-.06.39-.04.86-.11,1.41-.19v-2.51c0-.68-.32-1.03-.96-1.03-.3,0-.32-.08-.06-.26.3-.08.64-.06,1.03.06.39.13.71.3.96.51.21.17.19.34-.06.51-.09.04-.13.34-.13.9v1.67c.94-.13,1.58-.28,1.93-.45.21-.13.41-.13.58,0,.3.21.49.36.58.45Z"/>
      <path class="cls-2" d="M174,56.37c1.63-1.63,2.87-3.3,3.73-5.01-.17-.73-.43-1.37-.77-1.93-.9.94-1.84,1.65-2.83,2.12-.17.04-.21-.02-.13-.19,1.33-1.03,2.18-1.86,2.57-2.51-.34-.68-.9-1.41-1.67-2.18l.19-.13c.73.43,1.37,1.03,1.93,1.8.86-1.11,1.41-1.95,1.67-2.51l.96.58c.34.21.19.36-.45.45-.51.69-1.09,1.37-1.74,2.06.9,1.67,1.35,3.28,1.35,4.82,0,1.2-.11,2.27-.32,3.21-.21.86-.47,1.54-.77,2.06-.51.81-1.09,1.22-1.73,1.22-.26,0-.39-.11-.39-.32,0-.26-.13-.47-.38-.64l-.77-.45c-.17-.17-.15-.26.06-.26l.77.26c.34.13.64.19.9.19.34,0,.62-.15.84-.45.43-.6.73-1.61.9-3.02.08-.77.11-1.82.06-3.15-1.07,1.71-2.36,3.11-3.85,4.18-.17,0-.21-.06-.13-.19ZM185.95,48.47h1.22l.96-.96,1.22.9c.26.21.26.36,0,.45h-3.4v1.86c-.56.51-.84.54-.84.06v-1.93h-2.76v1.99c-.56.51-.84.54-.84.06v-2.06h-2.63v-.38h2.63v-2.83l1.09.19c.34.21.26.36-.26.45v2.18h2.76v-2.76l1.09.19c.34.21.26.36-.26.45v2.12ZM180.94,58.94v.77c-.56.51-.84.53-.84.06v-8.54l.96.64h5.91l.39-.51.9.64c.26.21.17.36-.26.45v6.87c-.56.51-.84.54-.84.06v-.45h-6.23ZM183.58,52.26h-2.63v2.96h2.63v-2.96ZM180.94,58.56h2.63v-2.96h-2.63v2.96ZM184.41,55.22h2.76v-2.96h-2.76v2.96ZM187.17,58.56v-2.96h-2.76v2.96h2.76Z"/>
    </g>
    <circle class="cls-1" cx="124.45" cy="54.23" r="3.78"/>
  </g>
</svg>