<?xml version="1.0" encoding="UTF-8"?>
<svg id="Capa_9" xmlns="http://www.w3.org/2000/svg" version="1.1" viewBox="0 0 200.3 71.4">
  <!-- Generator: Adobe Illustrator 30.3.0, SVG Export Plug-In . SVG Version: 2.1.3 Build 182)  -->
  <defs>
    <style>
      .st0 {
        fill: #d64045;
      }

      .st1 {
        fill: #f4f1ea;
      }
    </style>
  </defs>
  <g>
    <path class="st1" d="M28.8,10.5s.2-.1.2,2c0,0,.1,0,.2-.4.1-1.2,0-2.1-.2-2.2-.5-.2-2.4,1.8-3.2,3h1.9c0,0,.4-2.1,1.1-2.5Z"/>
    <path class="st1" d="M43.9,37.4c0-2.1-1.5-3.7-3.2-4.1-3.1-.9-6.5.5-8.2-.9l1,.2c-.4-2.4-3.2-4.3-3.1-5.9.2-2,2.7-1.8,3.6-2.7,1.3-1.5,1.5-3.2,1.2-3.7-.4-.7-.9-.2-1.9-1.5-.4-.5-.2-1.3-.8-1.9-.2-.3-.4-.5-.7-.8-1.1-.8-4.4,1.3-4.4,1.3,3.9-3.2,4.9-1.2,4.9-1.2.3-.8-.3-1.6-.9-1.9s-.9-.9-.9-.9c-.7-1.4-3-.4-3-.4,0,0-1-.1-2.2,0-1.1.2-1.8.6-1.8.6-.3-.3-.9-.9-1.4-1.5s-1.1-1.3-1.5-1.4c-.4,0-1.3,1.5-1.6,3.5-.2,1.7,0,3.8.3,4.6,0,.1,0,0,0,0-.3-.3-.5-1.3-.5-1.3,0,0-.5,1.6-.2,3.4,0,0,1.8-.8,3.8-3.7,0,0-1.4,2.9-3.8,4.2,0,0-.7.4-.5-.4s.1-3.2.3-3.5c0,0-.7.9-1.6,1.3-.9.4-1,.9-.6,1.8s1.1.8,1.1.8c0,0,.5,0,.9,1.4s2,.4,2,.4c0,0,1.9-1.1,2.8-2.2s2.5-2.7,2.5-2.7c0,0-2.7,4.6-5.8,5.7-.3,0,.9,1.2,1.5,1.7.8.7.7,2-.1,4.3-.5,1.6,0,4.1-.8,5.2-3,4.6-6.1,4.1-7.4,11.2,0,0-.8,1.7-2,.2-1.9-2.3.9-7.2,2.1-8.7,7.3-8.3,2.9-12.2,1.4-13.5s-.1-3.6-.1-3.6c-3.1,2.8-1.3,5.2-.2,7.7,1.1,2.5-1.1,5.5-1.1,5.5,1.1-3.2-1.9-8-1.9-8,0,0-2.6-4.7,1.7-8.3s2-9.1-1-10.3-2.2-3.6-2.2-3.6c-.7.4-1.8,3-.3,4.1s2,2.3,2,2.3c-1.3-.2-1.7-1.2-1.7-1.2.2,1.9.4.6,1.9,3.1,1.5,2.5-2.1,5.1-2.1,5.1,2.2-3.7-1.1-5.2-1.1-5.2,0,0,1.8,1.9-.2,3.5s-3.9,6,1,13.1c5.2,7.4-3.1,12.4-1.4,18.1,1.5,5,5.5,3.8,5.5,3.8,0,0,.6,1.7.8,2.2.4,1.2,1.9,3,.2,4.9-.4.5-.6,1,0,2.1.7,1.1,1.9,3.3,2.6,5.2.4,1.1,2.5,2,3,.8,0,0,.3-.6-.5-1.1,0,0,1.1.2.6,1.6,0,0,2.3.3.7-2,0,0,.8.2.9,1.2,0,0,1.4-2.1-2-2.2,0,0-1.8-2-.9-4,.9-1.8,4.2-2.4,3.9-6.6-.3-3.7,1.4-4.8,1.4-4.8-1.2,2.2-.8,4.5-.8,4.5,5.5-3.7,9.3-8.6,9.9-14,0,0-2,1.1-3-.3-.7-1-1.5-1.7-2.1-1.9,1.5,0,2.1,2,3.4,2,2.8,0,5.8-2.7,7.7-2.3,1.2.3,1.1,1.6,2,1.8,1.4.2.9-1.5.9-1.5.7.9,0,1.7,0,1.7,2,.3,1-2,1-2,.4.3.6.9.6.9h0ZM23.2,15.3c-1.2.8-.8.2-1.2,1.2-.4,1-.9.4-1,.2-1-1.3-.6-6.5.6-4.6,1,1.6,2.8,2.3,1.6,3.2h0Z"/>
    <path class="st1" d="M43.5,27c-2.5-1.9-3.8-2.3-7.5,0-3.7,2.3-4.9.4-4.9.4,0,0,.6,1.5,1.6,2.5,1.1,1,1.3,2.7,1.3,2.7h1.5c.4,0,2.1-1.7,2.5-2.5s2.2-2.3,2.8-1.5,1.1.8,1.1.8c1.9.3,1.3-1.5,1.3-1.5,1,1.5-.6,1.7-.6,1.7,0,0,1,.5,1.7-.5.7-.9-.9-2.2-.9-2.2Z"/>
    <path class="st1" d="M28.9,61.7c-1.5.3-3.8-3.1-2-5,1.9-2,.4-6.2.4-6.2-.9,1.5-3.9,3.2-3.9,3.2.3,1.8-1.4,3.7-1.4,3.7,0,0,0,.8-.2,1.1s0,1.2.6,1.5,3.5,3.4,3.5,3.4c0,0,.8,1.1,2.2,1.1s1.8-.3,1.8-.3c.8-1-.6-1.7-.6-1.7,1.3,0,1.2,1.3,1.2,1.3.7-1.3-.1-2.3-1.6-2.1h0Z"/>
  </g>
  <g>
    <g>
      <path class="st1" d="M58.7,53.6c.5.6.8,1.3.8,2.1s-.2,1.2-.5,1.8c-.3.5-.8.9-1.4,1.2-.6.3-1.4.5-2.2.5h-4v-12.8h4c1.3,0,2.2.3,2.9.9s1,1.3,1,2.3-.2,1.5-.7,2c-.4.5-1,.8-1.7,1,.7.1,1.4.5,1.9,1.1ZM52.2,52.2h3.2c1,0,1.7-.2,2.2-.7s.8-1.1.8-1.9-.2-1.4-.8-1.8-1.3-.7-2.3-.7h-3.1v5.1ZM57.8,57.7c.6-.5.9-1.2.9-2s-.3-1.5-.9-2c-.6-.5-1.4-.8-2.5-.8h-3.1v5.5h3.2c1,0,1.8-.2,2.4-.7h0Z"/>
      <path class="st1" d="M62,51.5c.4-.8,1-1.3,1.7-1.8s1.5-.6,2.5-.6,1.9.2,2.7.8c.7.5,1.2,1.2,1.5,2v-2.6h.8v9.9h-.8v-2.6c-.3.8-.8,1.5-1.5,2-.7.5-1.6.8-2.7.8s-1.7-.2-2.5-.6-1.3-1-1.7-1.8-.6-1.7-.6-2.7.2-1.9.6-2.7h0ZM69.8,51.9c-.4-.7-.8-1.2-1.5-1.5-.6-.4-1.3-.5-2.1-.5s-1.5.2-2.1.5-1.1.8-1.4,1.5c-.3.7-.5,1.4-.5,2.3s.2,1.7.5,2.3c.3.7.8,1.2,1.4,1.5s1.3.5,2.1.5,1.5-.2,2.1-.5,1.1-.9,1.5-1.5.5-1.4.5-2.3-.2-1.6-.5-2.3Z"/>
      <path class="st1" d="M79.2,59.2l-4.3-4.5v4.5h-.8v-13.5h.8v8l4.2-4.5h1.2l-4.8,4.9,4.8,5h-1.1Z"/>
      <path class="st1" d="M90.9,54.5h-8.5c0,.9.2,1.6.6,2.2s.8,1.1,1.4,1.4c.6.3,1.2.5,1.9.5s1.8-.2,2.4-.7,1.1-1.1,1.2-2h.8c-.2,1-.7,1.8-1.5,2.5-.8.6-1.8.9-3,.9s-1.7-.2-2.5-.6-1.3-1-1.7-1.8c-.4-.8-.6-1.7-.6-2.7s.2-1.9.6-2.7,1-1.3,1.7-1.8,1.6-.6,2.5-.6,1.8.2,2.5.6c.7.4,1.2,1,1.6,1.6.4.7.6,1.4.6,2.2s0,.8,0,1h0ZM89.7,51.6c-.3-.6-.8-1.1-1.4-1.3-.6-.3-1.2-.5-1.9-.5s-1.3.2-1.9.5-1.1.8-1.4,1.3c-.4.6-.6,1.3-.6,2.2h7.7c0-.9-.1-1.6-.5-2.2h0Z"/>
      <path class="st1" d="M95.5,49.7c.6-.4,1.4-.6,2.4-.6v.9h-.3c-1,0-1.8.3-2.4.8-.6.5-1,1.5-1,2.7v5.7h-.8v-9.9h.8v2c.2-.7.7-1.3,1.3-1.7h0Z"/>
      <path class="st1" d="M107.5,49.3l-5.7,14.5h-.8l1.8-4.6-4.1-9.9h.9l3.7,9,3.4-9h.8,0Z"/>
    </g>
    <g>
      <path class="st1" d="M63.2,27.2c1.4.6,2.5,1.4,3.2,2.5s1.2,2.3,1.2,3.6-.7,3.2-2.2,4.5c-.8.7-1.7,1.2-2.7,1.5s-2.4.5-3.9.5h-8.9v-23.2h8c1.1,0,2.1.1,3.1.4s1.7.6,2.3,1.1c.6.5,1.1,1,1.5,1.8s.6,1.5.6,2.4-.2,2.1-.6,2.9c-.4.8-.9,1.5-1.5,2h0ZM57.4,18.4h-3.6v8.2h3.5c1.1,0,2-.2,2.5-.7.6-.5,1-1.1,1.2-1.8s.3-1.3.3-1.9-.1-1-.3-1.6c-.2-.6-.6-1.1-1.2-1.5-.6-.4-1.4-.6-2.5-.7ZM58.7,38.1c1.1,0,1.9-.2,2.6-.5.7-.3,1.2-.8,1.5-1.3.3-.5.6-1,.7-1.6s.2-1,.2-1.5,0-1-.2-1.5c-.1-.5-.4-1.1-.7-1.6s-.8-.9-1.5-1.2c-.7-.3-1.5-.5-2.6-.5h-4.8v9.7s4.8,0,4.8,0Z"/>
      <path class="st1" d="M82.4,39.9l-2.7-6.2h-9.2l-2.8,6.2h-1.9l10.8-23.4,10.2,23.4h-4.3ZM79,31.9l-3.7-8.4-3.9,8.4s7.6,0,7.6,0Z"/>
      <path class="st1" d="M96.1,28.4l8.4,11.5h-4.9l-5.8-8-5.3,8h-1.8v-23.2h4v16.6l10.9-16.6h2.1s-7.7,11.7-7.7,11.7Z"/>
      <path class="st1" d="M104.7,16.6h14.7v1.8h-10.7v9h8v1.8h-8v9h10.7v1.8h-14.7v-23.2h0Z"/>
      <path class="st1" d="M138.4,16.6v23.2h-1.8l-14.6-17.1v17.1h-1.8v-23.2h1.8l14.6,17.1v-17.1h1.7,0Z"/>
      <path class="st1" d="M140,16.6h14.7v1.8h-10.7v9h8v1.8h-8v9h10.7v1.8h-14.7v-23.2h0Z"/>
      <path class="st1" d="M164.9,28.4l8.4,11.5h-4.9l-5.8-8-5.3,8h-1.8v-23.2h4v16.6l10.9-16.6h2.1l-7.7,11.7Z"/>
      <path class="st1" d="M182.3,16.4c1.6,0,3.1.3,4.6.9,1.4.6,2.7,1.5,3.7,2.6s1.9,2.3,2.5,3.8c.6,1.4.9,3,.9,4.6s-.3,3.1-.9,4.6c-.6,1.4-1.4,2.7-2.5,3.8-1.1,1.1-2.3,1.9-3.7,2.6-1.4.6-2.9.9-4.6.9s-3.1-.3-4.6-.9c-1.4-.6-2.7-1.5-3.7-2.5s-1.9-2.3-2.5-3.8-.9-3-.9-4.6.3-3.1.9-4.6c.6-1.4,1.4-2.7,2.5-3.8s2.3-1.9,3.7-2.5,2.9-.9,4.6-.9ZM189.9,28.3c0-3.1-.6-5.6-1.9-7.4s-3.1-2.7-5.7-2.7-4.5.9-5.8,2.7c-1.2,1.8-1.9,4.3-1.9,7.3s.6,5.5,1.9,7.3,3.2,2.7,5.7,2.7,4.5-.9,5.7-2.7c1.2-1.8,1.9-4.3,1.9-7.3h0Z"/>
    </g>
    <g>
      <path class="st1" d="M148.3,47.1c-.4,1.1-.9,2.1-1.5,3.2,1,.3,1.1.6.2.8v9.1c-.6.5-.8.5-.8,0v-8.5c-.7,1-1.6,2-2.6,2.8-.3.2-.3.2-.3,0,2.1-2.6,3.5-5.4,4.2-8.4l1.3.6c.3.1.2.3-.5.5h0ZM151.5,53.6v5c0,.2,0,.3.3.3h4.7c.4,0,.6-.2.8-.7l.6-2.4c0,0,.1,0,.2,0v2.5c0,.1,0,.2.1.3.3.2.3.4,0,.6-.2.2-.5.3-1,.3h-5.8c-.5,0-.8-.3-.8-.8v-12.7l1.2.2c.5.2.4.3-.3.5v6.3c2.9-2,4.7-3.5,5.3-4.6l1.2.9c.2.3,0,.5-.6.3-1.9,1.5-3.8,2.7-5.9,3.8h0Z"/>
      <path class="st1" d="M162.7,55.2c-.2.7-.3,1.4-.3,2s0,.4.1.8c0,.5,0,.7-.4.7s-.8-.5-1-1.3c-.2-.6-.2-1.5-.2-2.8,0-1.1.1-1.9.2-2.4.2-1,.3-1.7.4-2.2,0-.3.1-.8.1-1.2s-.1-.9-.4-1.2c-.2-.3-.1-.3.2-.2.5.3.9.8,1.1,1.2.1.3.1.6,0,.9-.7,1.5-1.1,3.1-1.1,4.9s0,1.4.2,1.7c0,.3.2.2.3-.1.4-1,.8-2.1,1.2-3.2.2-.2.3-.2.3,0-.2.7-.4,1.5-.7,2.4h0ZM173.4,49.8c.1.2,0,.3-.1.3-1,.1-2,.2-2.9.3v4.1c0,1.5-.4,2.7-1.4,3.7-.6.6-1.4,1.2-2.4,1.6-.3.1-.4,0-.3-.1.9-.6,1.6-1.2,2.2-2,.7-.9,1-2,1-3.4v-3.8c-.6.1-1.4.2-2.4.2s-1.3,0-1.6-.2c-.4-.2-.8-.5-1.2-1.1,0-.1.1-.2.2-.1.3.3.6.6.9.7s.7.2,1.2.2,1.2,0,1.5,0c.4,0,.9-.1,1.4-.2v-2.5c0-.7-.3-1-1-1s-.3,0,0-.3c.3,0,.6,0,1,0,.4.1.7.3,1,.5.2.2.2.3,0,.5,0,0-.1.3-.1.9v1.7c.9-.1,1.6-.3,1.9-.5.2-.1.4-.1.6,0,.3.2.5.4.6.5h0Z"/>
      <path class="st1" d="M174.9,56.5c1.6-1.6,2.9-3.3,3.7-5-.2-.7-.4-1.4-.8-1.9-.9.9-1.8,1.7-2.8,2.1-.2,0-.2,0-.1-.2,1.3-1,2.2-1.9,2.6-2.5-.3-.7-.9-1.4-1.7-2.2h.2c.7.3,1.4.9,1.9,1.7.9-1.1,1.4-2,1.7-2.5l1,.6c.3.2.2.4-.4.5-.5.7-1.1,1.4-1.7,2.1.9,1.7,1.4,3.3,1.4,4.8s-.1,2.3-.3,3.2c-.2.9-.5,1.5-.8,2.1-.5.8-1.1,1.2-1.7,1.2s-.4-.1-.4-.3-.1-.5-.4-.6l-.8-.5c-.2-.2-.1-.3,0-.3l.8.3c.3.1.6.2.9.2s.6-.2.8-.5c.4-.6.7-1.6.9-3,0-.8.1-1.8,0-3.2-1.1,1.7-2.4,3.1-3.9,4.2-.2,0-.2,0-.1-.2h0ZM186.8,48.5h1.2l1-1,1.2.9c.3.2.3.4,0,.5h-3.4v1.9c-.6.5-.8.5-.8,0v-1.9h-2.8v2c-.6.5-.8.5-.8,0v-2.1h-2.6v-.4h2.6v-2.8l1.1.2c.3.2.3.4-.3.5v2.2h2.8v-2.8l1.1.2c.3.2.3.4-.3.5v2.1h0ZM181.8,59v.8c-.6.5-.8.5-.8,0v-8.5l1,.6h5.9l.4-.5.9.6c.3.2.2.4-.3.5v6.9c-.6.5-.8.5-.8,0v-.5h-6.2,0ZM184.4,52.3h-2.6v3h2.6v-3ZM181.8,58.6h2.6v-3h-2.6v3ZM185.3,55.3h2.8v-3h-2.8v3ZM188,58.6v-3h-2.8v3h2.8Z"/>
    </g>
    <circle class="st0" cx="125.3" cy="54.3" r="3.8"/>
  </g>
</svg>