<?xml version="1.0" encoding="UTF-8"?>
<svg id="Capa_9" data-name="Capa 9" xmlns="http://www.w3.org/2000/svg" viewBox="0 0 256 256">
  <defs>
    <style>
      .cls-1 {
        fill: #d64045;
      }

      .cls-2 {
        fill: #192638;
      }
    </style>
  </defs>
  <g>
    <path class="cls-2" d="M58.63,91.56s.29-.21.3,2.87c0,0,.19-.13.24-.53.2-1.69.05-3.03-.3-3.13-.77-.23-3.49,2.56-4.57,4.35l2.68-.1s.6-2.91,1.65-3.46Z"/>
    <path class="cls-2" d="M80.38,130.45c.12-3.05-2.24-5.31-4.57-5.98-4.48-1.29-9.37.73-11.86-1.33l1.48.36c-.59-3.46-4.66-6.2-4.45-8.46.27-2.93,3.96-2.52,5.2-3.89,1.94-2.13,2.1-4.68,1.79-5.29-.52-1.05-1.32-.35-2.69-2.19-.55-.75-.29-1.88-1.09-2.76-.35-.38-.51-.8-1.04-1.15-1.66-1.13-6.29,1.84-6.29,1.84,5.63-4.69,7.11-1.67,7.11-1.67.45-1.13-.48-2.28-1.22-2.7-.74-.42-1.25-1.22-1.25-1.22-.96-2.03-4.27-.55-4.27-.55,0,0-1.44-.18-3.14.12-1.56.28-2.62.87-2.62.87-.38-.39-1.24-1.25-2.06-2.19-.82-.93-1.62-1.94-2.16-2-.63-.07-1.88,2.18-2.31,5.05-.37,2.44-.01,5.44.41,6.62.06.16.03.14-.03.08-.47-.41-.7-1.86-.7-1.86,0,0-.67,2.3-.33,4.94,0,0,2.54-1.14,5.51-5.33,0,0-2.03,4.16-5.43,6.15,0,0-1.07.57-.8-.51.28-1.07.18-4.63.45-4.98,0,0-1.05,1.27-2.31,1.84-1.27.58-1.51,1.33-.86,2.57.65,1.24,1.63,1.16,1.63,1.16,0,0,.7.06,1.29,2.07s2.97.57,2.97.57c0,0,2.8-1.54,4.03-3.15,1.23-1.6,3.59-3.88,3.59-3.88,0,0-3.86,6.68-8.39,8.21-.39.13,1.23,1.71,2.12,2.48,1.21,1.06.99,2.94-.14,6.27-.77,2.27,0,5.87-1.11,7.57-4.29,6.61-8.83,5.93-10.76,16.19,0,0-1.2,2.41-2.94.29-2.7-3.3,1.26-10.47,3.09-12.56,10.51-11.96,4.15-17.65,2.07-19.48s-.19-5.21-.19-5.21c-4.44,4-1.83,7.48-.24,11.14,1.59,3.67-1.59,8.01-1.59,8.01,1.59-4.58-2.8-11.53-2.8-11.53,0,0-3.76-6.75,2.41-12.06,6.17-5.31,2.85-13.21-1.5-14.95-4.34-1.74-3.13-5.26-3.13-5.26-.96.63-2.6,4.34-.43,5.93,2.17,1.59,2.89,3.38,2.89,3.38-1.93-.29-2.46-1.69-2.46-1.69.34,2.7.63.92,2.8,4.53,2.17,3.62-3.09,7.43-3.09,7.43,3.18-5.35-1.59-7.48-1.59-7.48,0,0,2.6,2.75-.34,5.02-2.94,2.27-5.67,8.73,1.45,19,7.44,10.74-4.43,17.97-2.07,26.11,2.1,7.25,7.97,5.43,7.97,5.43,0,0,.91,2.44,1.22,3.25.63,1.67,2.8,4.27.24,7.14-.58.66-.87,1.45.1,3.09.96,1.64,2.7,4.75,3.76,7.48.6,1.54,3.54,2.87,4.32,1.08,0,0,.46-.92-.68-1.62,0,0,1.61.31.94,2.26,0,0,3.3.45.99-2.86,0,0,1.15.21,1.34,1.76,0,0,2.03-2.99-2.95-3.18,0,0-2.64-2.96-1.29-5.83,1.26-2.68,6.11-3.48,5.67-9.6-.39-5.33,2-6.87,2-6.87-1.81,3.13-1.16,6.44-1.16,6.44,7.94-5.32,13.41-12.49,14.31-20.19,0,0-2.96,1.62-4.39-.37-1.03-1.43-2.16-2.39-3.05-2.78,2.2-.11,2.99,2.9,4.94,2.9,4.1,0,8.34-3.92,11.19-3.31,1.8.39,1.61,2.31,2.89,2.54,2.04.36,1.25-2.12,1.25-2.12,1.06,1.32,0,2.38,0,2.38,2.89.39,1.48-2.86,1.48-2.86.58.49.87,1.35.87,1.35ZM50.59,98.46c-1.8,1.19-1.09.32-1.67,1.74-.58,1.41-1.28.63-1.51.32-1.43-1.91-.92-9.37.88-6.62,1.5,2.29,4.1,3.38,2.3,4.57Z"/>
    <path class="cls-2" d="M79.88,115.44c-3.67-2.8-5.5-3.38-10.85,0-5.35,3.38-7.09.63-7.09.63,0,0,.85,2.19,2.38,3.55,1.53,1.37,1.9,3.84,1.9,3.84h2.15c.59-.14,3.09-2.4,3.65-3.6s3.26-3.31,4.12-2.1c.86,1.21,1.64,1.19,1.64,1.19,2.8.38,1.82-2.11,1.82-2.11,1.5,2.17-.82,2.51-.82,2.51,0,0,1.45.68,2.46-.68,1.01-1.35-1.35-3.23-1.35-3.23Z"/>
    <path class="cls-2" d="M58.7,165.57c-2.2.37-5.53-4.42-2.83-7.23,2.7-2.81.59-9,.59-9-1.35,2.15-5.59,4.69-5.59,4.69.37,2.64-2.07,5.29-2.07,5.29,0,0,.1,1.19-.29,1.64-.39.45.11,1.8.87,2.12s5,4.89,5,4.89c0,0,1.21,1.64,3.18,1.56s2.57-.4,2.57-.4c1.14-1.45-.88-2.41-.88-2.41,1.88.11,1.8,1.88,1.8,1.88,1.01-1.88-.14-3.39-2.35-3.02Z"/>
  </g>
  <g>
    <g>
      <path class="cls-2" d="M97.18,99.27c-1.21,3.38-2.77,6.75-4.66,10.13,3.1,1.08,3.31,1.89.61,2.43v28.55c-1.76,1.62-2.63,1.69-2.63.2v-26.93c-2.3,3.24-5,6.21-8.1,8.91-.81.54-1.08.54-.81,0,6.61-8.23,11-17.08,13.16-26.53l4.05,1.82c1.08.41.54.88-1.62,1.42ZM107.51,119.92v15.59c0,.54.27.81.81.81h14.78c1.22,0,2.03-.74,2.43-2.23l2.02-7.49c.27-.27.47-.2.61.2l-.2,7.9c0,.41.2.74.61,1.01.81.54.81,1.21,0,2.02-.68.67-1.69,1.01-3.04,1.01h-18.23c-1.62,0-2.43-.81-2.43-2.43v-39.89l3.64.61c1.48.54,1.14,1.08-1.01,1.62v19.84c9.18-6.21,14.71-11,16.6-14.38l3.85,2.83c.67,1.08,0,1.42-2.02,1.01-5.94,4.59-12.08,8.57-18.43,11.95Z"/>
      <path class="cls-2" d="M142.54,124.78c-.68,2.3-1.01,4.39-1.01,6.28,0,.41.13,1.22.41,2.43.27,1.49-.14,2.23-1.22,2.23-1.35,0-2.43-1.42-3.24-4.25-.54-1.89-.74-4.79-.61-8.71.13-3.37.34-5.87.61-7.49.54-3.1,1.01-5.47,1.42-7.09.27-1.08.41-2.36.41-3.85,0-1.62-.41-2.9-1.22-3.85-.54-.81-.34-1.01.61-.61,1.62,1.08,2.77,2.36,3.44,3.85.41.81.34,1.76-.2,2.84-2.3,4.59-3.44,9.72-3.44,15.39,0,2.57.2,4.39.61,5.47.27.81.61.68,1.01-.41,1.35-3.24,2.63-6.55,3.85-9.92.54-.54.81-.47.81.2-.68,2.3-1.42,4.79-2.23,7.49ZM176.36,107.98c.41.54.27.88-.4,1.01-3.11.41-6.21.74-9.32,1.01v12.96c0,4.73-1.42,8.57-4.25,11.54-1.89,2.02-4.39,3.71-7.49,5.06-1.08.41-1.35.27-.81-.41,2.7-1.76,4.99-3.85,6.88-6.28,2.16-2.83,3.24-6.41,3.24-10.73v-11.95c-2.02.41-4.52.61-7.49.61-2.3,0-3.98-.2-5.06-.61-1.35-.54-2.63-1.69-3.85-3.44.13-.41.34-.54.61-.41.94,1.08,1.89,1.82,2.83,2.23.94.41,2.16.61,3.65.61,2.02,0,3.64-.07,4.86-.2,1.22-.13,2.7-.34,4.46-.61v-7.9c0-2.16-1.01-3.24-3.04-3.24-.95,0-1.01-.27-.2-.81.94-.27,2.03-.2,3.24.2,1.22.41,2.23.95,3.04,1.62.67.54.61,1.08-.2,1.62-.27.14-.41,1.08-.41,2.83v5.27c2.97-.41,4.99-.88,6.07-1.42.67-.41,1.28-.41,1.82,0,.94.68,1.55,1.15,1.82,1.42Z"/>
      <path class="cls-2" d="M181.01,128.83c5.13-5.13,9.04-10.39,11.74-15.79-.54-2.29-1.35-4.32-2.43-6.08-2.83,2.97-5.81,5.2-8.91,6.68-.54.14-.68-.07-.41-.61,4.18-3.24,6.88-5.87,8.1-7.9-1.08-2.16-2.83-4.46-5.27-6.88l.61-.41c2.29,1.35,4.32,3.24,6.07,5.67,2.7-3.51,4.46-6.14,5.27-7.9l3.04,1.82c1.08.68.61,1.15-1.42,1.42-1.62,2.16-3.44,4.32-5.47,6.48,2.84,5.27,4.25,10.33,4.25,15.19,0,3.78-.34,7.16-1.01,10.12-.68,2.7-1.49,4.86-2.43,6.48-1.62,2.56-3.44,3.85-5.47,3.85-.81,0-1.22-.34-1.22-1.01,0-.81-.41-1.49-1.21-2.02l-2.43-1.42c-.54-.54-.47-.81.2-.81l2.43.81c1.08.41,2.03.61,2.83.61,1.08,0,1.96-.47,2.63-1.42,1.35-1.89,2.29-5.06,2.84-9.52.27-2.43.33-5.74.2-9.92-3.38,5.4-7.43,9.79-12.15,13.16-.54,0-.68-.2-.41-.61ZM218.68,103.93h3.85l3.04-3.04,3.85,2.83c.81.68.81,1.15,0,1.42h-10.73v5.87c-1.76,1.62-2.63,1.69-2.63.2v-6.08h-8.71v6.28c-1.76,1.62-2.63,1.69-2.63.2v-6.48h-8.3v-1.21h8.3v-8.91l3.44.61c1.08.68.81,1.15-.81,1.42v6.89h8.71v-8.71l3.44.61c1.08.68.81,1.15-.81,1.42v6.68ZM202.88,136.93v2.43c-1.76,1.62-2.63,1.69-2.63.2v-26.93l3.04,2.03h18.63l1.22-1.62,2.83,2.03c.81.68.54,1.15-.81,1.42v21.67c-1.76,1.62-2.63,1.69-2.63.2v-1.42h-19.64ZM211.19,115.87h-8.3v9.32h8.3v-9.32ZM202.88,135.72h8.3v-9.32h-8.3v9.32ZM213.82,125.19h8.71v-9.32h-8.71v9.32ZM222.53,135.72v-9.32h-8.71v9.32h8.71Z"/>
    </g>
    <g>
      <path class="cls-2" d="M179.26,151.13c.49.58.73,1.25.73,2.03,0,.64-.15,1.2-.45,1.7-.3.5-.75.89-1.34,1.18-.6.29-1.32.43-2.16.43h-3.94v-12.4h3.87c1.24,0,2.17.29,2.8.86s.94,1.31.94,2.22c0,.79-.21,1.43-.64,1.92-.42.49-.97.82-1.62,1,.72.13,1.32.48,1.81,1.06ZM172.9,149.72h3.11c.93,0,1.65-.22,2.15-.66.5-.44.75-1.05.75-1.83s-.25-1.35-.74-1.78-1.24-.65-2.24-.65h-3.02v4.93ZM178.35,155.08c.57-.48.86-1.13.86-1.97s-.29-1.48-.87-1.97c-.58-.49-1.38-.73-2.39-.73h-3.04v5.39h3.09c1,0,1.79-.24,2.36-.72Z"/>
      <path class="cls-2" d="M182.43,149.08c.39-.74.94-1.31,1.64-1.71.7-.4,1.5-.6,2.39-.6,1.01,0,1.87.25,2.58.74.71.5,1.2,1.13,1.48,1.89v-2.51h.79v9.59h-.79v-2.53c-.28.78-.78,1.42-1.49,1.92-.71.5-1.57.75-2.57.75-.89,0-1.69-.2-2.39-.61s-1.25-.98-1.64-1.73c-.4-.75-.59-1.62-.59-2.6s.2-1.85.59-2.6ZM190,149.46c-.35-.64-.82-1.14-1.42-1.48-.6-.35-1.27-.52-2.01-.52s-1.46.17-2.05.5-1.05.82-1.38,1.46c-.33.64-.49,1.39-.49,2.26s.17,1.62.49,2.26c.33.64.79,1.12,1.39,1.47.6.34,1.28.51,2.04.51s1.42-.17,2.02-.52,1.08-.84,1.42-1.48c.34-.64.51-1.39.51-2.23s-.17-1.57-.52-2.22Z"/>
      <path class="cls-2" d="M199.19,156.48l-4.18-4.4v4.4h-.79v-13.07h.79v7.82l4.11-4.34h1.11l-4.65,4.77,4.7,4.82h-1.09Z"/>
      <path class="cls-2" d="M210.53,152h-8.28c.02.86.21,1.58.56,2.17s.82,1.03,1.4,1.32c.58.3,1.21.44,1.89.44.94,0,1.73-.23,2.37-.7s1.04-1.1,1.2-1.9h.83c-.19.98-.67,1.77-1.45,2.38-.78.61-1.76.91-2.95.91-.89,0-1.69-.2-2.4-.6-.71-.4-1.26-.97-1.66-1.72-.4-.75-.6-1.62-.6-2.62s.2-1.87.59-2.61c.39-.74.94-1.31,1.65-1.7.71-.39,1.51-.59,2.42-.59s1.72.2,2.39.59c.68.4,1.19.92,1.55,1.57.35.65.53,1.36.53,2.11,0,.42-.01.74-.04.95ZM209.32,149.19c-.34-.59-.79-1.03-1.37-1.32-.58-.29-1.2-.43-1.87-.43s-1.29.14-1.86.43c-.57.29-1.04.73-1.4,1.32-.36.59-.55,1.31-.57,2.15h7.52c.04-.85-.11-1.57-.45-2.15Z"/>
      <path class="cls-2" d="M215.01,147.25c.6-.37,1.37-.56,2.3-.56v.83h-.26c-.94,0-1.72.27-2.35.8-.62.54-.94,1.41-.94,2.62v5.53h-.79v-9.59h.79v1.98c.24-.71.65-1.24,1.25-1.61Z"/>
      <path class="cls-2" d="M226.63,146.89l-5.58,14.09h-.81l1.78-4.5-4.03-9.59h.87l3.6,8.71,3.35-8.71h.81Z"/>
    </g>
    <g>
      <path class="cls-2" d="M92.14,150.01c.68.29,1.22.7,1.61,1.24s.6,1.13.6,1.78c0,.84-.37,1.6-1.11,2.26-.37.34-.83.59-1.36.76s-1.18.25-1.94.25h-4.44v-11.54h3.98c.55,0,1.06.06,1.54.19.48.13.86.31,1.16.54.29.22.54.51.74.87.2.36.3.75.3,1.18,0,.57-.11,1.06-.32,1.46s-.47.73-.77,1ZM89.26,145.64h-1.77v4.09h1.75c.55,0,.97-.12,1.25-.36s.48-.53.59-.87c.11-.34.16-.65.16-.95,0-.25-.06-.52-.17-.82-.11-.3-.31-.56-.59-.77s-.69-.32-1.23-.32ZM89.89,155.43c.53,0,.95-.08,1.28-.25.33-.17.58-.38.75-.64.18-.26.3-.52.36-.79.06-.27.1-.51.1-.72,0-.23-.03-.49-.1-.76-.07-.27-.18-.54-.35-.79-.17-.25-.42-.46-.75-.62-.33-.16-.76-.25-1.29-.25h-2.4v4.82h2.4Z"/>
      <path class="cls-2" d="M101.71,156.31l-1.35-3.09h-4.56l-1.4,3.09h-.96l5.35-11.65,5.09,11.65h-2.16ZM99.98,152.34l-1.84-4.19-1.93,4.19h3.77Z"/>
      <path class="cls-2" d="M108.5,150.59l4.19,5.72h-2.46l-2.89-3.96-2.61,3.96h-.88v-11.54h1.98v8.26l5.44-8.26h1.05l-3.82,5.82Z"/>
      <path class="cls-2" d="M112.78,144.76h7.3v.88h-5.32v4.46h4v.88h-4v4.46h5.32v.88h-7.3v-11.54Z"/>
      <path class="cls-2" d="M129.52,144.76v11.54h-.88l-7.26-8.49v8.49h-.88v-11.54h.88l7.28,8.51v-8.51h.86Z"/>
      <path class="cls-2" d="M130.33,144.76h7.3v.88h-5.32v4.46h4v.88h-4v4.46h5.32v.88h-7.3v-11.54Z"/>
      <path class="cls-2" d="M142.69,150.59l4.19,5.72h-2.46l-2.89-3.96-2.61,3.96h-.88v-11.54h1.98v8.26l5.44-8.26h1.05l-3.82,5.82Z"/>
      <path class="cls-2" d="M151.38,144.66c.81,0,1.57.16,2.27.46.71.31,1.33.73,1.86,1.27s.95,1.16,1.25,1.87c.3.71.46,1.47.46,2.27s-.15,1.56-.46,2.27c-.3.71-.72,1.33-1.25,1.87s-1.15.96-1.86,1.27c-.71.31-1.47.46-2.27.46s-1.56-.15-2.27-.46c-.71-.3-1.33-.73-1.86-1.26s-.95-1.16-1.25-1.88c-.31-.71-.46-1.47-.46-2.28s.15-1.57.46-2.28c.3-.71.72-1.34,1.25-1.88s1.15-.96,1.86-1.26c.71-.3,1.46-.46,2.27-.46ZM155.15,150.54c0-1.56-.31-2.78-.93-3.67s-1.57-1.33-2.84-1.33-2.25.45-2.87,1.35c-.61.9-.92,2.12-.92,3.65s.32,2.75.95,3.65c.63.9,1.58,1.35,2.84,1.35s2.22-.45,2.84-1.36c.62-.91.93-2.12.93-3.64Z"/>
    </g>
    <circle class="cls-1" cx="164.38" cy="151.78" r="3.67"/>
  </g>
</svg>