<?xml version="1.0" encoding="UTF-8"?>
<svg id="Capa_2" xmlns="http://www.w3.org/2000/svg" version="1.1" viewBox="0 0 400.3 318.2">
  <!-- Generator: Adobe Illustrator 30.3.0, SVG Export Plug-In . SVG Version: 2.1.3 Build 182)  -->
  <defs>
    <style>
      .st0 {
        opacity: .6;
      }

      .st0, .st1 {
        fill: #474747;
        isolation: isolate;
      }

      .st2 {
        fill: #dfbbaa;
      }

      .st1 {
        opacity: .4;
      }

      .st3 {
        fill: #dbd2c3;
      }

      .st4 {
        fill: #242424;
      }
    </style>
  </defs>
  <path class="st4" d="M43.9,171.9c12.6,8.6,27.5,11.7,43.5,11.4-7.5,3.6-13.4,9.1-16.4,17.6-6.9,20,9.2,45.5,33.9,47.1,26.5,1.7,43.4-27.3,66.4-31.5,0,0,141.5,66.2,229.1,101.7v-173.7l-173.6-53c-31-24.9-32.4-64-57.9-69.7-46.5-10.3-45.5,27.8-41.7,46.2-19.2-17-28.6-29.2-44.6-30.1-28.5-.7-45,23.1-36.2,46,5.5,14.2,20,20.4,37.9,28.8-21.4-4.1-34.5-3.8-47.2,4.7-22,14.8-14.8,39.6,6.9,54.4Z"/>
  <path class="st2" d="M67.6,126.6c15,.7,27.5,9.6,28,19.8s-11.4,18-26.5,17.3-27.5-9.6-28-19.8c-.4-10.2,11.4-18,26.5-17.3h0Z"/>
  <path class="st2" d="M96.4,58.3c13.6,8.8,19.5,23,13.1,31.8-6.4,8.8-22.7,8.8-36.3,0-13.6-8.8-19.5-23-13.1-31.8,6.4-8.8,22.7-8.8,36.3,0Z"/>
  <path class="st2" d="M98.4,199.2c10.3-5.8,23.2-4.2,28.9,3.6,5.7,7.7,1.9,18.7-8.4,24.4-10.3,5.8-23.2,4.2-28.9-3.6-5.7-7.7-1.9-18.6,8.4-24.4h0Z"/>
  <path class="st2" d="M140.3,52.4c-2.2-11.4,3.9-21.2,13.6-22,9.7-.8,19.3,7.8,21.5,19.2,2.2,11.4-3.9,21.3-13.6,22-9.7.8-19.3-7.8-21.5-19.2h0Z"/>
  <path class="st3" d="M68.2,46.4c-9.3-6.7-32.6-11.8-42.3-9,10.1,6.1,21.7,11.5,27,27,1.3-14.2,14.5-17.3,15.4-18h0Z"/>
  <path class="st3" d="M162.3,25.6C157.8,16,140.1,1.7,129.8,0c5.5,9.4,12.7,18.9,8.7,34.1,9.1-11.3,22.6-8.2,23.7-8.5h0Z"/>
  <path class="st3" d="M37.5,157.3c-11.4-1.3-32.2-13-37.5-21.7,11.6,2.2,23.8,5.9,38.1-2-8.5,11.4-.8,22.6-.6,23.6Z"/>
  <path class="st3" d="M94.9,231.9c-9.8,4.1-32.5,2.9-41.2-2.7,10.4-3.4,22.1-5.6,29.3-19.5-.8,14.5,11.3,21.2,12,22.2h0Z"/>
  <path class="st2" d="M160.4,115.5c-9.5,3.5-19.8-3.1-25.1,10.9-5.9,15.4,6.6,16.1,11.4,25,4.7,8.9,4.3,19.1,14.5,23,11.4,4.4,23.8-.2,27.6-10.2,1.1-3,.8-10.5,2.9-16.1,2.4-6.3,7.4-10.7,8.6-14,3.9-10-2.3-21.7-13.7-26.1-10.3-3.9-16.8,4.1-26.2,7.5h0Z"/>
  <path class="st4" d="M811.9,171.9c12.6,8.6,27.5,11.7,43.5,11.4-7.5,3.6-13.4,9.1-16.4,17.6-6.9,20,9.2,45.5,33.9,47.1,26.5,1.7,43.4-27.3,66.4-31.5,0,0,141.5,66.2,229.1,101.7v-173.7l-173.6-53c-31-24.9-32.4-64-57.9-69.7-46.5-10.3-45.5,27.8-41.7,46.2-19.2-17-28.6-29.2-44.6-30.1-28.5-.7-45,23.1-36.2,46,5.5,14.2,20,20.4,37.9,28.8-21.4-4.1-34.5-3.8-47.2,4.7-22,14.8-14.8,39.6,6.9,54.4Z"/>
  <path class="st1" d="M877,148.9c.9,8.6,7.4,18.3,13.7,26.3,1.4,2,2.9,3.8,4.4,5.4.9,1.1,1.8,2.1,2.6,3.1,2.3,2.8,5.7,4.8,9.6,6.3,18,10,41.8,10.7,62.9,13.4,28.1,13,144.1,63.4,198,84.6v-119.6l-172.3-52.6c-3.7-3-6.7-6.2-9.3-9.6-1.5-.8-2.9-1.7-4.4-2.5-.3-.3-.7-.7-1-1-9.2-9.8-23.6-15.6-36.5-18.7-23.2-5.5-46.2,9.4-58.3,28.2-7.6,11.9-11,22.1-9.5,36.6h0Z"/>
  <path class="st0" d="M876.5,188.2c-13.5,3.7-32.8,19.6-24.9,35.3-.2.6-.2,1.3-.1,2,0,1.3.3,2.7,1,3.8,1.2,1.9,4.3,3.1,4.8,3.6,4.5,3.4,11.9,5.7,18.5,6.1,8.4.5,16.6-4,22.8-9.1,7.7-6.4,10.5-11,12-20.7,2.8-18.1-20.5-24.7-34.2-20.9Z"/>
  <path class="st0" d="M798.6,144.7c.1.2-.1,5.3,1.8,7.4.4.5.8,1,1.2,1.5,1.4,3,3.4,5.7,5.9,8.2.5.7,1,1.4,1.7,2,3,3.2,7.3,5.5,12,7,7.7,3.3,16.1,4.5,22.8,2.8.5-.1,1-.3,1.5-.4,4.4-.5,8.5-1.9,12-4,4.7-2.1,9-4.9,11.3-8.8,1.4-2.4,2.3-5,2.8-7.5,3.6-10.2-4.7-20.4-12.5-25.8-4-2.8-8.5-7.5-13.6-8.1-6.1-.7-12.6-.3-18.7.1-11.2.8-20.9,6.7-25.5,17.5-.1.2-.2.5-.3.7-2.6,1.6-4.1,4.4-2.4,7.4h0Z"/>
  <path class="st0" d="M873.2,105.6c15-2.8,20.4-18.4,16.6-31.6-1.7-5.9-7.6-12.1-11.7-16.6-5.9-6.4-16.5-7.3-24.5-9.5-10.4-2.9-19,.2-24,7.1-2.4.1-4.9,1.4-5.8,3.6-4.4,10.8-.7,21.7,6.8,30.4,10.6,12.3,26.1,19.7,42.6,16.6h0ZM848.8,73.8c3.3,1.1,6.6,3.5,9.6,5.2,1,.6,1.9,1.1,2.9,1.7-4,1.4-11.4-3.2-15.8-8.1,1.1.4,2.2.8,3.3,1.1h0Z"/>
  <path class="st0" d="M916.4,75.1c9.6,6.8,23.1,5.8,31.7-2.2,9.7-8.9,10.2-23.2,2.9-33.4-3.9-5.4-10-9.3-16.1-11.8-1.4-.6-2.8-.9-4.2-1,0,0-.1,0-.1,0-11.6-2.3-25,4-26.8,16.6-1.7,11.8,2.5,24.7,12.7,31.9h0ZM921.3,42.7c2.9-.3,5.7-.6,8.3,0,.3.2.6.4.8.6,2.3,2.1,2.5,5.8,3.6,8.6,1.3,3.1,2.4,5.7,1.9,9.1-.2,1.7-3.6,1.9-4.1,1.8-2.6-.7-3.9-.6-5-3.5-1.4-3.4-4-5.5-7.2-6.5-.5-2-.7-4.1-.6-6.4,0-1.7,1-2.9,2.3-3.7h0Z"/>
  <path class="st2" d="M835.6,126.6c15,.7,27.5,9.6,28,19.8s-11.4,18-26.5,17.3-27.5-9.6-28-19.8c-.4-10.2,11.4-18,26.5-17.3h0Z"/>
  <path class="st2" d="M864.4,58.3c13.6,8.8,19.5,23,13.1,31.8-6.4,8.8-22.7,8.8-36.3,0-13.6-8.8-19.5-23-13.1-31.8,6.4-8.8,22.7-8.8,36.3,0Z"/>
  <path class="st2" d="M866.4,199.2c10.3-5.8,23.2-4.2,28.9,3.6,5.7,7.7,1.9,18.7-8.4,24.4-10.3,5.8-23.2,4.2-28.9-3.6-5.7-7.7-1.9-18.6,8.4-24.4h0Z"/>
  <path class="st2" d="M908.3,52.4c-2.2-11.4,3.9-21.2,13.6-22,9.7-.8,19.3,7.8,21.5,19.2,2.2,11.4-3.9,21.3-13.6,22-9.7.8-19.3-7.8-21.5-19.2h0Z"/>
  <path class="st3" d="M836.2,46.4c-9.3-6.7-32.6-11.8-42.3-9,10.1,6.1,21.7,11.5,27,27,1.3-14.2,14.5-17.3,15.4-18h0Z"/>
  <path class="st3" d="M930.3,25.6C925.8,16,908.1,1.7,897.8,0c5.5,9.4,12.7,18.9,8.7,34.1,9.1-11.3,22.6-8.2,23.7-8.5h0Z"/>
  <path class="st3" d="M805.5,157.3c-11.4-1.3-32.2-13-37.5-21.7,11.6,2.2,23.8,5.9,38.1-2-8.5,11.4-.8,22.6-.6,23.6Z"/>
  <path class="st3" d="M862.9,231.9c-9.8,4.1-32.5,2.9-41.2-2.7,10.4-3.4,22.1-5.6,29.3-19.5-.8,14.5,11.3,21.2,12,22.2h0Z"/>
  <path class="st2" d="M928.4,115.5c-9.5,3.5-19.8-3.1-25.1,10.9-5.9,15.4,6.6,16.1,11.4,25,4.7,8.9,4.3,19.1,14.5,23,11.4,4.4,23.8-.2,27.6-10.2,1.1-3,.8-10.5,2.9-16.1,2.4-6.3,7.4-10.7,8.6-14,3.9-10-2.3-21.7-13.7-26.1-10.3-3.9-16.8,4.1-26.2,7.5h0Z"/>
</svg>