<?xml version="1.0" encoding="UTF-8"?>
<svg id="Capa_2" data-name="Capa 2" xmlns="http://www.w3.org/2000/svg" viewBox="0 0 400.26 318.21">
  <defs>
    <style>
      .cls-1 {
        fill: #dfbbaa;
      }

      .cls-2 {
        fill: #dbd2c3;
      }

      .cls-3 {
        opacity: .4;
      }

      .cls-3, .cls-4 {
        fill: #474747;
      }

      .cls-4 {
        opacity: .6;
      }

      .cls-5 {
        fill: #242424;
      }
    </style>
  </defs>
  <path class="cls-5" d="M356.4,146.34c-12.58-8.64-27.53-11.71-43.49-11.44,7.48-3.59,13.43-9.08,16.37-17.61,6.92-20.01-9.16-45.52-33.85-47.07-26.46-1.66-43.38,27.3-66.35,31.49C229.09,101.7,87.54,35.49,0,0v173.69l173.64,53c31,24.93,32.36,64.05,57.91,69.71,46.48,10.3,45.52-27.78,41.68-46.19,19.25,16.97,28.62,29.21,44.58,30.13,28.52.74,44.98-23.06,36.18-45.98-5.45-14.19-19.98-20.39-37.87-28.84,21.42,4.05,34.5,3.79,47.16-4.74,21.96-14.79,14.79-39.55-6.88-54.44Z"/>
  <path class="cls-3" d="M291.28,169.26c-.88-8.57-7.39-18.26-13.73-26.28-1.38-1.96-2.86-3.76-4.43-5.43-.9-1.07-1.77-2.1-2.58-3.05-2.33-2.76-5.74-4.83-9.61-6.34-17.98-10.02-41.81-10.72-62.93-13.44C169.95,101.73,53.94,51.29,0,30.1v119.6l172.33,52.6c3.68,2.96,6.7,6.22,9.32,9.6,1.47.83,2.94,1.67,4.41,2.51.32.34.66.7.97,1.03,9.25,9.75,23.59,15.6,36.47,18.66,23.23,5.52,46.25-9.43,58.3-28.25,7.62-11.9,10.95-22.13,9.47-36.59Z"/>
  <path class="cls-4" d="M291.73,130.04c13.47-3.73,32.83-19.56,24.86-35.29.16-.61.2-1.27.12-1.96.06-1.34-.31-2.7-1.04-3.82-1.22-1.87-4.28-3.14-4.84-3.57-4.49-3.42-11.9-5.69-18.54-6.06-8.36-.46-16.56,4.01-22.76,9.12-7.72,6.37-10.47,10.96-11.99,20.68-2.84,18.11,20.47,24.69,34.19,20.9Z"/>
  <path class="cls-4" d="M369.66,173.5c-.1-.18.14-5.29-1.75-7.42-.43-.48-.81-1.02-1.21-1.53-1.39-2.97-3.43-5.73-5.92-8.2-.53-.67-1.05-1.35-1.66-1.98-3.05-3.2-7.31-5.47-12.02-7.01-7.71-3.28-16.13-4.5-22.82-2.79-.46.12-.98.26-1.47.39-4.43.48-8.45,1.89-12.04,4.02-4.73,2.11-9.05,4.93-11.31,8.84-1.41,2.42-2.29,4.97-2.75,7.53-3.57,10.19,4.68,20.4,12.46,25.83,4.02,2.8,8.53,7.52,13.64,8.1,6.11.69,12.56.34,18.69-.11,11.25-.82,20.85-6.71,25.48-17.54.1-.24.17-.47.26-.71,2.57-1.62,4.11-4.39,2.41-7.41Z"/>
  <path class="cls-4" d="M295.06,212.57c-14.95,2.79-20.35,18.39-16.58,31.64,1.69,5.93,7.59,12.1,11.74,16.59,5.88,6.37,16.54,7.32,24.45,9.49,10.43,2.87,18.96-.19,24.02-7.07,2.39-.14,4.88-1.39,5.79-3.63,4.36-10.8.66-21.66-6.84-30.4-10.56-12.32-26.08-19.68-42.58-16.61ZM319.46,244.39c-3.3-1.08-6.6-3.49-9.57-5.24-.97-.57-1.94-1.13-2.92-1.7,3.95-1.44,11.41,3.23,15.8,8.05-1.11-.37-2.22-.75-3.31-1.11Z"/>
  <path class="cls-4" d="M251.86,243.13c-9.63-6.84-23.05-5.76-31.69,2.19-9.71,8.92-10.24,23.16-2.85,33.38,3.89,5.39,10.02,9.31,16.06,11.78,1.39.57,2.8.87,4.23,1.03.05.01.1.03.15.04,11.57,2.28,24.95-3.96,26.77-16.56,1.7-11.83-2.54-24.68-12.66-31.86ZM246.97,275.5c-2.85.27-5.7.59-8.34.01-.29-.18-.57-.38-.81-.6-2.27-2.13-2.47-5.83-3.6-8.56-1.29-3.14-2.41-5.72-1.95-9.15.23-1.7,3.62-1.94,4.15-1.8,2.57.71,3.9.64,5.04,3.48,1.39,3.44,4.04,5.49,7.2,6.54.52,2,.71,4.13.59,6.41-.09,1.68-.99,2.89-2.27,3.67Z"/>
  <path class="cls-1" d="M332.67,191.56c-15.03-.69-27.55-9.56-27.97-19.81-.42-10.25,11.43-17.99,26.46-17.3,15.03.69,27.55,9.56,27.97,19.81.41,10.25-11.43,17.99-26.47,17.3Z"/>
  <path class="cls-1" d="M303.86,259.86c-13.65-8.79-19.53-23.04-13.12-31.81,6.41-8.77,22.67-8.75,36.33.04,13.65,8.8,19.53,23.03,13.12,31.81-6.41,8.77-22.67,8.75-36.33-.04Z"/>
  <path class="cls-1" d="M301.91,118.99c-10.3,5.75-23.24,4.15-28.92-3.57-5.68-7.72-1.93-18.65,8.36-24.4,10.3-5.76,23.24-4.16,28.92,3.57,5.68,7.72,1.93,18.64-8.37,24.4Z"/>
  <path class="cls-1" d="M259.97,265.85c2.18,11.39-3.92,21.25-13.6,22.02-9.7.77-19.33-7.83-21.5-19.23-2.18-11.4,3.91-21.26,13.61-22.03,9.69-.77,19.32,7.84,21.5,19.23Z"/>
  <path class="cls-2" d="M332.11,271.77c9.34,6.68,32.61,11.84,42.34,8.95-10.07-6.13-21.67-11.54-27-26.96-1.29,14.19-14.51,17.28-15.35,18Z"/>
  <path class="cls-2" d="M238,292.62c4.5,9.57,22.2,23.84,32.44,25.59-5.46-9.43-12.68-18.92-8.7-34.08-9.15,11.31-22.59,8.24-23.74,8.48Z"/>
  <path class="cls-2" d="M362.79,160.95c11.41,1.28,32.16,13.01,37.47,21.67-11.59-2.18-23.83-5.92-38.1,1.98,8.53-11.42.77-22.55.63-23.65Z"/>
  <path class="cls-2" d="M305.32,86.3c9.75-4.11,32.45-2.88,41.23,2.67-10.37,3.36-22.08,5.59-29.26,19.51.76-14.53-11.29-21.23-11.98-22.19Z"/>
  <path class="cls-1" d="M239.89,202.75c9.53-3.48,19.81,3.13,25.14-10.86,5.92-15.43-6.61-16.07-11.4-25.03-4.74-8.85-4.26-19.08-14.51-23.01-11.39-4.37-23.75.21-27.6,10.24-1.14,2.97-.77,10.51-2.93,16.14-2.41,6.27-7.36,10.66-8.62,13.96-3.85,10.02,2.27,21.7,13.67,26.07,10.3,3.95,16.76-4.06,26.24-7.52Z"/>
</svg>